<?xml version="1.0" encoding="UTF-8" standalone="no"?>
<!-- Created with Inkscape (http://www.inkscape.org/) -->

<svg
   width="1920"
   height="860"
   viewBox="0 0 508 227.54169"
   version="1.1"
   id="svg1"
   xml:space="preserve"
   inkscape:export-filename="../../Documentos/faculdade/angelo/trabalho_final_p1/tec_front_end/static/img_logo/logo_guiamed"
   inkscape:export-xdpi="96"
   inkscape:export-ydpi="96"
   inkscape:version="1.4.2 (ebf0e940d0, 2025-05-08)"
   sodipodi:docname="criando_imagens_para_o_trabalho.svg"
   xmlns:inkscape="http://www.inkscape.org/namespaces/inkscape"
   xmlns:sodipodi="http://sodipodi.sourceforge.net/DTD/sodipodi-0.dtd"
   xmlns="http://www.w3.org/2000/svg"
   xmlns:svg="http://www.w3.org/2000/svg"><sodipodi:namedview
     id="namedview1"
     pagecolor="#ffffff"
     bordercolor="#000000"
     borderopacity="0.25"
     inkscape:showpageshadow="2"
     inkscape:pageopacity="0.0"
     inkscape:pagecheckerboard="0"
     inkscape:deskcolor="#d1d1d1"
     inkscape:document-units="mm"
     inkscape:zoom="0.090532934"
     inkscape:cx="-71.797077"
     inkscape:cy="104.93419"
     inkscape:window-width="1920"
     inkscape:window-height="1019"
     inkscape:window-x="0"
     inkscape:window-y="0"
     inkscape:window-maximized="1"
     inkscape:current-layer="layer1"><inkscape:page
       x="0"
       y="0"
       width="508"
       height="227.54169"
       id="page2"
       margin="0"
       bleed="0" /></sodipodi:namedview><defs
     id="defs1" /><g
     inkscape:label="Camada 1"
     inkscape:groupmode="layer"
     id="layer1"><path
       id="text1"
       style="font-weight:900;font-size:62.7601px;line-height:52.2995px;font-family:'DM Sans';-inkscape-font-specification:'DM Sans Heavy';text-align:center;letter-spacing:0px;text-anchor:middle;fill:#017bd8;fill-opacity:0.996078;stroke-width:1.76726"
       d="m 73.289896,50.223228 c -26.380921,0 -47.78416,21.403249 -47.78416,47.784156 0,21.751816 29.118163,60.477336 41.885535,76.455196 3.06118,3.80781 8.73538,3.80781 11.796561,0 12.767371,-15.97786 41.886218,-54.70338 41.886218,-76.455196 0,-26.380907 -21.403247,-47.784156 -47.784154,-47.784156 z m -1.885191,22.975677 h 3.896801 a 6.0327143,6.0327143 0 0 1 6.032734,6.032738 v 15.25053 h 17.403233 a 6.0327143,6.0327143 0 0 1 6.032747,6.032737 v 3.76968 a 6.0327143,6.0327143 0 0 1 -6.032747,6.03273 H 81.33424 v 15.37626 a 6.0327143,6.0327143 0 0 1 -6.032734,6.03275 H 71.404705 A 6.0327143,6.0327143 0 0 1 65.37197,125.69358 V 110.31732 H 47.841603 a 6.0327143,6.0327143 0 0 1 -6.032734,-6.03273 v -3.76968 a 6.0327143,6.0327143 0 0 1 6.032734,-6.032737 H 65.37197 v -15.25053 a 6.0327143,6.0327143 0 0 1 6.032735,-6.032738 z m 91.540205,20.634384 c -6.27733,0 -11.67836,1.328933 -16.20256,3.986894 -4.46764,2.657977 -7.91756,6.333687 -10.34932,11.027547 -2.3752,4.69386 -3.56223,10.0949 -3.56223,16.20255 0,6.05112 1.1311,11.3389 3.3932,15.8631 2.26211,4.52419 5.37227,8.0587 9.33094,10.60357 4.01523,2.4883 8.56758,3.73196 13.65731,3.73196 2.77107,0 5.31568,-0.39568 7.63434,-1.18742 2.3752,-0.79173 4.46822,-1.97945 6.27791,-3.56292 1.80967,-1.58346 3.33645,-3.47795 4.5806,-5.68351 h 0.33947 l 0.93246,9.41616 h 11.70646 V 121.06338 H 164.0478 v 9.50068 h 13.91155 c -0.56553,3.84557 -2.12096,7.04102 -4.66582,9.58589 -2.48832,2.54486 -6.16403,3.81716 -11.02755,3.81716 -3.44969,0 -6.41865,-0.70745 -8.90697,-2.12126 -2.43175,-1.47037 -4.29757,-3.61931 -5.59828,-6.44695 -1.30071,-2.82761 -1.95154,-6.27684 -1.95154,-10.34862 0,-3.95866 0.65083,-7.37993 1.95154,-10.2641 1.30071,-2.94073 3.22317,-5.20293 5.76802,-6.7864 2.54486,-1.64001 5.65504,-2.46004 9.33094,-2.46004 3.3366,0 6.0511,0.65015 8.14354,1.95086 2.14899,1.3007 3.6478,3.13857 4.49609,5.51377 h 14.16649 c -1.35727,-5.99456 -4.38284,-10.68814 -9.0767,-14.081281 -4.63729,-3.393155 -10.51859,-5.0898 -17.6442,-5.0898 z m 91.95368,0 c -2.26211,0 -4.12791,0.678798 -5.59828,2.036054 -1.4138,1.300704 -2.12057,2.940736 -2.12057,4.920067 0,1.97933 0.70677,3.64732 2.12057,5.00459 1.47037,1.3007 3.33617,1.95084 5.59828,1.95084 2.31865,0 4.18517,-0.65014 5.59898,-1.95084 1.41381,-1.35727 2.12058,-3.02526 2.12058,-5.00459 0,-1.979331 -0.70677,-3.619363 -2.12058,-4.920067 -1.41381,-1.357256 -3.28033,-2.036054 -5.59898,-2.036054 z m 61.8403,1.017679 v 59.380252 h 12.72413 v -39.27601 h 0.33946 l 13.40306,30.79302 h 12.30017 l 13.6573,-30.79302 h 0.33946 v 39.27601 h 12.72415 V 94.850968 H 365.85503 L 349.82221,132.5149 h -0.33947 L 333.19568,94.850968 Z m 153.03054,0 V 117.161 c -1.41381,-1.69657 -3.3083,-3.11009 -5.6835,-4.24115 -2.37521,-1.1876 -5.11767,-1.78182 -8.22805,-1.78182 -3.95868,0 -7.43656,0.96123 -10.43383,2.88401 -2.99728,1.86624 -5.31612,4.46819 -6.95613,7.80478 -1.64004,3.28004 -2.46003,7.06901 -2.46003,11.367 0,4.29799 0.81999,8.11493 2.46003,11.45152 1.64001,3.28005 3.93018,5.882 6.8709,7.80478 2.94074,1.86623 6.39065,2.79879 10.34933,2.79879 2.3752,0 4.49618,-0.33906 6.36241,-1.01769 1.9228,-0.67863 3.61945,-1.61189 5.08981,-2.79949 1.47036,-1.24415 2.71401,-2.7143 3.73195,-4.41087 h 0.33945 l 0.59371,7.21036 h 10.68879 V 94.850968 Z m -180.0057,16.287062 c -3.78902,0 -7.15434,0.65084 -10.09508,1.95155 -2.88417,1.30072 -5.20298,3.1099 -6.95612,5.42855 -1.75312,2.2621 -2.77097,4.94863 -3.05373,8.05902 h 12.21565 c 0.33931,-1.80967 1.21594,-3.1386 2.62975,-3.9869 1.47036,-0.84828 3.19498,-1.27261 5.17431,-1.27261 1.80969,0 3.25187,0.31107 4.32637,0.93315 1.13104,0.56554 1.95107,1.47013 2.46004,2.71428 0.50897,1.1876 0.76343,2.74304 0.76343,4.66582 h -10.34933 c -4.24143,0 -7.71931,0.56555 -10.43383,1.69661 -2.71453,1.13105 -4.72226,2.68648 -6.02296,4.66581 -1.24415,1.92278 -1.86563,4.15632 -1.86563,6.70119 0,2.31864 0.48026,4.43963 1.44165,6.36241 1.01794,1.86623 2.60134,3.36435 4.75034,4.4954 2.14899,1.13104 4.89215,1.6966 8.22875,1.6966 1.52691,0 2.99706,-0.16918 4.41087,-0.50849 1.41381,-0.28276 2.71478,-0.70711 3.9024,-1.27263 1.24415,-0.62208 2.40321,-1.38547 3.47771,-2.2903 1.07449,-0.96139 2.06438,-2.06453 2.96921,-3.30868 h 0.33876 l 1.35784,6.36241 h 10.51836 v -25.87295 c 0,-3.73246 -0.84798,-6.87129 -2.54456,-9.41616 -1.64001,-2.60141 -3.9868,-4.55181 -7.04063,-5.85253 -2.99729,-1.30071 -6.5318,-1.95155 -10.60357,-1.95155 z m 120.71066,0 c -4.46765,0 -8.36986,0.9899 -11.70646,2.96923 -3.33659,1.92278 -5.93784,4.58066 -7.80408,7.97381 -1.86623,3.39315 -2.79949,7.2667 -2.79949,11.62124 0,4.24144 0.93326,8.00245 2.79949,11.28249 1.92279,3.22348 4.55269,5.74015 7.88928,7.54982 3.39315,1.80968 7.29541,2.71427 11.70646,2.71429 3.33658,0 6.39016,-0.65015 9.16123,-1.95085 2.82762,-1.3007 5.20306,-3.05398 7.12585,-5.25953 1.92279,-2.20554 3.27968,-4.66558 4.07141,-7.38009 H 417.9397 c -0.67864,1.24415 -1.66852,2.262 -2.96922,3.05373 -1.24416,0.79173 -2.77093,1.18811 -4.58061,1.18811 -1.92279,0 -3.61943,-0.39638 -5.08979,-1.18811 -1.47037,-0.84829 -2.60147,-2.00735 -3.3932,-3.47771 -0.61293,-1.18209 -0.98892,-2.48305 -1.12734,-3.90239 h 31.24145 c 0.0566,-0.73518 0.0845,-1.44193 0.0845,-2.12056 0.0566,-0.73518 0.0852,-1.38533 0.0852,-1.95086 0,-4.12832 -0.93327,-7.77608 -2.79949,-10.94301 -1.86623,-3.16694 -4.43951,-5.65494 -7.71956,-7.46462 -3.2235,-1.80967 -6.95585,-2.71499 -11.19728,-2.71499 z m -213.00451,1.01839 v 23.3277 c 0,4.24145 0.62217,7.83257 1.86633,10.7733 1.30071,2.94073 3.16724,5.17427 5.59899,6.70118 2.43175,1.52692 5.42868,2.29031 8.99148,2.29031 3.56281,0 6.5038,-0.67811 8.82245,-2.03536 2.31865,-1.35726 4.12785,-3.2804 5.42857,-5.76872 h 0.33944 l 1.1029,6.78639 h 10.7733 v -42.0748 H 227.6692 v 21.63111 c 0,2.26209 -0.39638,4.2132 -1.18812,5.85322 -0.79173,1.58347 -1.89416,2.79917 -3.30797,3.64745 -1.35726,0.84829 -2.94067,1.27262 -4.75035,1.27262 -2.94072,0 -5.0617,-0.87664 -6.36241,-2.62977 -1.3007,-1.80967 -1.95084,-4.3543 -1.95084,-7.63434 v -22.14029 z m 50.98178,0 v 42.0748 h 12.72484 v -42.0748 z m 162.10793,9.0767 c 2.3752,0 4.35429,0.70675 5.93776,2.12056 1.64003,1.41381 2.54461,3.25168 2.71427,5.51378 h -18.13454 c 0.21131,-0.98265 0.5158,-1.8593 0.91432,-2.62977 0.90484,-1.69657 2.09256,-2.94091 3.56292,-3.73264 1.52691,-0.84829 3.1956,-1.27193 5.00527,-1.27193 z m 48.86122,0.16902 c 2.14899,0 4.01481,0.50962 5.59828,1.52758 1.64002,0.96139 2.88437,2.31829 3.73266,4.07141 0.90483,1.75313 1.35713,3.78882 1.35713,6.10747 0,2.31865 -0.4523,4.35506 -1.35713,6.10818 -0.84829,1.75314 -2.06398,3.13869 -3.64744,4.15663 -1.58348,1.01794 -3.45001,1.52687 -5.599,1.52687 -2.09243,0 -3.95824,-0.50893 -5.59828,-1.52687 -1.58346,-1.01794 -2.82782,-2.40349 -3.73265,-4.15663 -0.84829,-1.75312 -1.27262,-3.78953 -1.27262,-6.10818 0,-2.26209 0.42433,-4.26982 1.27262,-6.02295 0.90483,-1.75312 2.14919,-3.13799 3.73265,-4.15593 1.64004,-1.01796 3.47789,-1.52758 5.51378,-1.52758 z m -171.01492,15.69338 h 8.22875 c -0.22621,1.18759 -0.56595,2.29072 -1.01837,3.30867 -0.45242,1.01795 -1.0739,1.92254 -1.86564,2.71427 -0.73518,0.73518 -1.61182,1.3294 -2.62976,1.78182 -1.01794,0.45242 -2.23433,0.67823 -3.64814,0.67823 -1.01795,0 -1.95051,-0.14122 -2.79879,-0.42399 -0.84829,-0.33931 -1.49913,-0.79161 -1.95154,-1.35713 -0.45242,-0.62208 -0.67823,-1.38547 -0.67823,-2.2903 0,-0.90484 0.22581,-1.66822 0.67823,-2.29031 0.45241,-0.67863 1.13122,-1.18756 2.03606,-1.52687 0.96139,-0.39587 2.17707,-0.59439 3.64743,-0.59439 z" /></g></svg>
